<?xml version="1.0" standalone="no"?>
<!DOCTYPE svg PUBLIC "-//W3C//DTD SVG 20010904//EN"
 "http://www.w3.org/TR/2001/REC-SVG-20010904/DTD/svg10.dtd">
<svg version="1.0" xmlns="http://www.w3.org/2000/svg"
 width="661.000000pt" height="696.000000pt" viewBox="0 0 661.000000 696.000000"
 preserveAspectRatio="xMidYMid meet">
<metadata>
Created by potrace 1.16, written by Peter Selinger 2001-2019
</metadata>
<g transform="translate(0.000000,696.000000) scale(0.100000,-0.100000)"
fill="#000000" stroke="none">
<path d="M0 6615 c0 -223 4 -345 10 -345 6 0 10 -9 10 -20 0 -11 -4 -20 -10
-20 -6 0 -10 -93 -10 -260 0 -224 2 -260 15 -260 8 0 15 -9 15 -20 0 -11 -7
-20 -15 -20 -8 0 -15 -9 -15 -20 0 -17 7 -20 40 -20 33 0 40 3 40 20 0 13 7
20 20 20 13 0 20 7 20 20 0 15 7 20 25 20 18 0 25 5 25 20 0 17 7 20 40 20
l40 0 0 105 0 105 -65 0 c-58 0 -65 2 -65 20 0 11 5 20 10 20 6 0 10 9 10 20
0 11 7 20 15 20 8 0 15 9 15 20 0 13 7 20 20 20 13 0 20 -7 20 -20 0 -13 -7
-20 -20 -20 -13 0 -20 -7 -20 -20 0 -13 7 -20 20 -20 13 0 20 7 20 20 0 13 7
20 20 20 17 0 20 7 20 45 0 38 -3 45 -20 45 -22 0 -26 28 -14 89 10 46 34 40
34 -9 0 -33 3 -40 20 -40 17 0 20 7 20 40 0 33 3 40 20 40 13 0 20 7 20 20 0
13 -7 20 -20 20 -17 0 -20 7 -20 45 0 38 3 45 20 45 17 0 20 7 20 40 0 33 -3
40 -20 40 -17 0 -20 -7 -20 -40 0 -33 -3 -40 -20 -40 -11 0 -20 -7 -20 -15 0
-8 -9 -15 -20 -15 -11 0 -20 7 -20 15 0 8 9 15 20 15 18 0 20 7 20 60 0 53 2
60 20 60 13 0 20 7 20 20 0 13 7 20 20 20 13 0 20 7 20 20 0 13 7 20 20 20 19
0 20 7 20 150 0 143 -1 150 -20 150 -13 0 -20 7 -20 20 0 13 7 20 20 20 13 0
20 7 20 20 0 19 -7 20 -185 20 l-185 0 0 -345z"/>
<path d="M3120 6770 c0 -19 -7 -20 -145 -20 -122 0 -145 -2 -145 -15 0 -8 -9
-15 -20 -15 -11 0 -20 7 -20 15 0 9 -9 15 -25 15 -18 0 -25 -5 -25 -20 0 -18
-7 -20 -60 -20 -53 0 -60 -2 -60 -20 0 -17 -7 -20 -40 -20 -33 0 -40 3 -40 20
0 15 -7 20 -25 20 -21 0 -25 -5 -25 -27 0 -55 -13 -103 -26 -103 -8 0 -14 11
-14 25 0 23 -4 25 -40 25 -36 0 -40 -2 -40 -25 0 -18 -5 -25 -20 -25 -13 0
-20 -7 -20 -20 0 -13 -7 -20 -20 -20 -13 0 -20 -7 -20 -20 0 -17 -7 -20 -45
-20 -38 0 -45 -3 -45 -20 0 -17 -7 -20 -40 -20 -33 0 -40 -3 -40 -20 0 -13 -7
-20 -20 -20 -13 0 -20 -7 -20 -20 0 -13 -7 -20 -20 -20 -15 0 -20 -7 -20 -25
0 -22 4 -25 40 -25 33 0 40 -3 40 -20 0 -17 -7 -20 -40 -20 -33 0 -40 -3 -40
-20 0 -17 -7 -20 -45 -20 l-45 0 0 -85 0 -85 -40 0 -40 0 0 -60 c0 -53 -2 -60
-20 -60 -18 0 -20 -7 -20 -85 l0 -85 -40 0 c-33 0 -40 -3 -40 -20 0 -13 7 -20
20 -20 14 0 20 -7 20 -21 0 -19 -5 -21 -62 -18 -35 1 -91 2 -125 1 -56 -2 -63
-4 -63 -22 0 -13 -7 -20 -20 -20 -13 0 -20 -7 -20 -20 0 -13 -7 -20 -20 -20
-13 0 -20 7 -20 20 0 15 -7 20 -25 20 -18 0 -25 -5 -25 -20 0 -13 -7 -20 -20
-20 -15 0 -20 -7 -20 -25 0 -18 -5 -25 -20 -25 -13 0 -20 -7 -20 -20 0 -13 -7
-20 -20 -20 -17 0 -20 -7 -20 -40 l0 -40 -40 0 -40 0 0 -40 c0 -36 -2 -40 -25
-40 l-25 0 0 -105 c0 -98 1 -105 20 -105 17 0 20 -7 20 -45 0 -38 -3 -45 -20
-45 -13 0 -20 -7 -20 -20 0 -17 -7 -20 -40 -20 l-40 0 0 -40 c0 -33 3 -40 20
-40 17 0 20 -7 20 -40 0 -29 4 -40 15 -40 9 0 15 -9 15 -25 0 -16 -6 -25 -15
-25 -8 0 -15 -9 -15 -20 0 -11 7 -20 15 -20 8 0 15 -9 15 -20 0 -11 -7 -20
-15 -20 -12 0 -15 -18 -15 -105 0 -98 -1 -105 -20 -105 -13 0 -20 -7 -20 -20
0 -13 7 -20 20 -20 17 0 20 -7 20 -40 0 -33 -3 -40 -20 -40 -13 0 -20 -7 -20
-20 0 -13 -7 -20 -20 -20 -15 0 -20 -7 -20 -25 0 -16 6 -25 15 -25 8 0 15 -9
15 -20 0 -11 -7 -20 -15 -20 -8 0 -15 -9 -15 -20 0 -13 7 -20 20 -20 15 0 20
-7 20 -29 0 -49 -12 -91 -26 -91 -8 0 -14 -10 -14 -25 0 -18 5 -25 19 -25 18
0 19 -10 20 -165 0 -157 -1 -165 -19 -165 -13 0 -20 -7 -20 -20 0 -13 7 -20
20 -20 13 0 20 -7 20 -20 0 -13 -7 -20 -20 -20 -13 0 -20 -7 -20 -20 0 -13 7
-20 20 -20 15 0 20 -7 20 -25 0 -18 -5 -25 -20 -25 -13 0 -20 -7 -20 -20 0
-11 7 -20 15 -20 10 0 15 -10 15 -29 0 -16 3 -43 6 -60 6 -27 4 -31 -15 -31
-14 0 -21 -6 -21 -20 0 -13 7 -20 20 -20 15 0 20 -7 20 -25 0 -18 -5 -25 -20
-25 -17 0 -20 -7 -20 -40 0 -29 4 -40 15 -40 8 0 15 -9 15 -20 0 -11 -7 -20
-15 -20 -8 0 -15 -9 -15 -20 0 -11 7 -20 15 -20 11 0 15 -12 15 -45 0 -33 -4
-45 -15 -45 -8 0 -15 -9 -15 -20 0 -11 6 -20 14 -20 9 0 15 -20 20 -61 9 -93
8 -99 -14 -99 -15 0 -20 -7 -20 -25 0 -19 5 -25 21 -25 19 0 21 -4 15 -31 -3
-17 -6 -35 -6 -40 0 -5 -7 -9 -15 -9 -8 0 -15 -9 -15 -20 0 -13 7 -20 20 -20
13 0 20 -7 20 -20 0 -13 -7 -20 -20 -20 -13 0 -20 -7 -20 -20 0 -13 7 -20 20
-20 21 0 24 -9 14 -59 -4 -17 -13 -31 -20 -31 -10 0 -14 -16 -14 -60 0 -53 2
-60 20 -60 13 0 20 -7 20 -20 0 -13 -7 -20 -20 -20 -19 0 -20 -7 -20 -150 0
-143 1 -150 20 -150 13 0 20 -7 20 -18 0 -10 5 -23 11 -29 8 -8 8 -13 0 -17
-6 -4 -11 0 -11 8 0 9 -9 16 -20 16 -19 0 -20 -7 -22 -147 -1 -82 -1 -165 0
-185 2 -32 -1 -38 -18 -38 -17 0 -20 -7 -20 -45 0 -38 3 -45 20 -45 13 0 20
-7 20 -20 0 -13 -7 -20 -20 -20 -18 0 -20 -7 -20 -80 0 -73 2 -80 20 -80 18 0
20 -7 20 -65 0 -58 -2 -65 -20 -65 -18 0 -20 -7 -20 -85 0 -78 2 -85 20 -85
13 0 20 -7 20 -20 0 -13 -7 -20 -20 -20 -13 0 -20 -7 -20 -20 0 -11 7 -20 15
-20 10 0 15 -10 15 -29 0 -57 12 -91 31 -91 17 0 19 -8 19 -65 0 -58 -2 -65
-20 -65 -17 0 -20 -7 -20 -40 0 -33 3 -40 20 -40 13 0 20 -7 20 -20 0 -13 7
-20 20 -20 15 0 20 -7 20 -25 0 -18 -5 -25 -20 -25 -13 0 -20 -7 -20 -20 0
-13 7 -20 20 -20 13 0 20 -7 20 -20 0 -13 -7 -20 -20 -20 -13 0 -20 -7 -20
-20 0 -13 7 -20 20 -20 13 0 20 -7 20 -20 0 -13 -7 -20 -20 -20 -13 0 -20 -7
-20 -20 0 -17 7 -20 40 -20 36 0 40 -2 40 -25 0 -20 5 -25 25 -25 20 0 25 5
25 25 0 18 5 25 20 25 17 0 20 -7 20 -45 0 -38 3 -45 20 -45 13 0 20 7 20 20
0 11 7 20 15 20 8 0 15 -9 15 -20 0 -11 -7 -20 -15 -20 -8 0 -15 -9 -15 -20 0
-13 7 -20 20 -20 13 0 20 -7 20 -20 0 -13 7 -20 20 -20 11 0 20 7 20 15 0 8 9
15 20 15 11 0 20 -7 20 -15 0 -9 9 -15 25 -15 18 0 25 -5 25 -20 0 -13 7 -20
20 -20 13 0 20 7 20 20 0 11 7 20 15 20 8 0 15 -9 15 -19 0 -25 14 -29 78 -23
48 4 52 3 52 -17 0 -14 6 -21 20 -21 13 0 20 7 20 20 0 15 7 20 25 20 18 0 25
-5 25 -20 0 -18 7 -20 80 -20 79 0 80 0 80 -25 0 -23 4 -25 45 -25 41 0 45 2
45 25 0 18 5 25 20 25 15 0 20 -7 20 -25 0 -18 5 -25 20 -25 13 0 20 -7 20
-20 0 -18 7 -20 60 -20 44 0 60 4 60 14 0 14 42 26 94 26 18 0 37 5 44 12 9 9
15 9 24 0 7 -7 20 -12 30 -12 11 0 18 -7 18 -20 0 -17 7 -20 40 -20 29 0 40 4
40 15 0 9 9 15 25 15 16 0 25 -6 25 -15 0 -8 9 -15 20 -15 13 0 20 -7 20 -20
0 -13 7 -20 20 -20 11 0 20 7 20 15 0 8 9 15 20 15 11 0 20 -7 20 -15 0 -13
21 -15 125 -15 104 0 125 2 125 15 0 12 13 15 60 15 47 0 60 -3 60 -15 0 -13
31 -15 220 -15 140 0 220 4 220 10 0 6 28 10 65 10 37 0 65 -4 65 -10 0 -7
315 -10 925 -10 918 0 925 0 925 20 0 17 7 20 40 20 29 0 40 4 40 15 0 8 9 15
20 15 11 0 20 -7 20 -15 0 -11 11 -15 40 -15 33 0 40 3 40 20 0 17 7 20 45 20
l45 0 0 45 0 45 40 0 c33 0 40 3 40 20 0 13 -7 20 -20 20 -13 0 -20 7 -20 19
0 11 -6 21 -12 24 -7 2 -4 3 7 1 11 -2 35 -4 53 -4 25 0 32 -4 32 -20 0 -17 7
-20 40 -20 33 0 40 3 40 20 0 13 -7 20 -20 20 -17 0 -20 7 -20 40 l0 40 45 0
c41 0 45 2 45 25 0 18 5 25 20 25 18 0 20 7 20 60 0 53 2 60 20 60 17 0 20 7
20 40 0 33 -3 40 -20 40 -15 0 -20 7 -20 25 0 18 5 25 20 25 17 0 20 7 20 40
0 29 -4 40 -15 40 -8 0 -15 9 -15 20 0 11 7 20 15 20 8 0 15 9 15 20 0 17 7
20 40 20 33 0 40 3 40 20 0 13 -7 20 -20 20 -19 0 -20 7 -20 105 0 98 1 105
20 105 13 0 20 7 20 20 0 13 -7 20 -20 20 -15 0 -20 7 -20 25 0 18 5 25 20 25
13 0 20 7 20 20 0 13 -7 20 -20 20 -17 0 -20 7 -20 40 0 33 3 40 20 40 13 0
20 7 20 20 0 13 -7 20 -20 20 -17 0 -20 7 -20 45 0 33 -4 45 -15 45 -8 0 -15
9 -15 20 0 11 7 20 15 20 12 0 15 13 15 60 0 53 2 60 20 60 13 0 20 7 20 20 0
13 -7 20 -20 20 -15 0 -20 7 -20 25 0 18 5 25 20 25 17 0 20 7 20 40 0 33 -3
40 -20 40 -19 0 -20 7 -20 105 0 87 -3 105 -15 105 -8 0 -15 9 -15 20 0 16 7
20 35 20 28 0 35 4 35 20 0 13 -7 20 -20 20 -13 0 -20 7 -20 20 0 13 7 20 20
20 17 0 20 7 20 45 0 36 -3 45 -17 45 -16 0 -18 14 -20 125 -3 119 -2 125 17
125 13 0 20 7 20 20 0 11 -7 20 -15 20 -8 0 -15 9 -15 20 0 11 7 20 15 20 8 0
15 9 15 20 0 13 -7 20 -18 20 -16 0 -18 9 -19 65 0 57 2 65 18 65 12 0 19 7
19 20 0 13 -7 20 -18 20 -17 0 -18 13 -20 185 -1 177 0 185 18 185 13 0 20 7
20 20 0 13 -7 20 -20 20 -17 0 -20 7 -20 45 0 38 3 45 20 45 13 0 20 7 20 20
0 13 -7 20 -20 20 -19 0 -20 7 -20 105 0 98 1 105 20 105 13 0 20 7 20 20 0
13 -7 20 -20 20 -18 0 -20 7 -20 60 0 53 2 60 20 60 15 0 20 7 20 25 0 18 -5
25 -20 25 -13 0 -20 7 -20 20 0 11 -7 20 -15 20 -8 0 -15 9 -15 20 0 11 7 20
15 20 12 0 15 18 15 105 0 98 1 105 20 105 13 0 20 7 20 20 0 13 -7 20 -20 20
-18 0 -20 7 -20 85 0 78 2 85 20 85 13 0 20 7 20 20 0 13 -7 20 -20 20 -13 0
-20 7 -20 20 0 11 -7 20 -15 20 -8 0 -15 9 -15 20 0 11 7 20 15 20 8 0 15 9
15 20 0 11 -6 20 -14 20 -10 0 -17 15 -21 44 -9 58 2 126 21 126 11 0 14 24
14 125 0 118 -1 125 -20 125 -18 0 -20 7 -20 85 0 78 2 85 20 85 17 0 20 7 20
40 0 39 -1 40 -35 40 -29 0 -35 4 -37 23 -1 22 -4 108 -6 265 -2 75 -4 82 -22
82 -15 0 -20 7 -20 25 0 18 5 25 20 25 13 0 20 7 20 20 0 13 -7 20 -20 20 -13
0 -20 7 -20 20 0 15 -7 20 -25 20 -16 0 -25 -6 -25 -15 0 -8 -9 -15 -20 -15
-11 0 -20 7 -20 15 0 8 9 15 20 15 13 0 20 7 20 20 0 17 -7 20 -40 20 -33 0
-40 3 -40 20 0 13 7 20 20 20 13 0 20 7 20 20 0 18 -7 20 -60 20 l-60 0 0 45
0 45 -40 0 c-33 0 -40 3 -40 20 0 17 -7 20 -45 20 l-45 0 0 40 0 40 -60 0
c-44 0 -60 -4 -60 -14 0 -7 -14 -16 -31 -20 -50 -10 -59 -7 -59 14 0 17 -7 20
-40 20 -33 0 -40 3 -40 20 0 17 -7 20 -40 20 -36 0 -40 3 -40 25 0 23 -4 25
-45 25 l-45 0 0 80 c0 73 -2 80 -20 80 -13 0 -20 7 -20 20 0 13 -7 20 -20 20
-15 0 -20 7 -20 25 0 23 -4 25 -40 25 l-40 0 0 40 c0 33 -3 40 -20 40 -13 0
-20 7 -20 20 0 13 -7 20 -20 20 -13 0 -20 -7 -20 -20 0 -11 -6 -20 -14 -20 -7
0 -16 9 -19 20 -4 15 0 20 14 20 12 0 19 7 19 20 0 15 -7 20 -25 20 -18 0 -25
5 -25 20 0 17 -7 20 -40 20 l-40 0 0 45 0 45 -40 0 c-33 0 -40 3 -40 20 0 13
-7 20 -20 20 -13 0 -20 7 -20 20 0 15 -7 20 -25 20 -18 0 -25 -5 -25 -20 0
-13 -7 -20 -20 -20 -13 0 -20 7 -20 20 0 17 -7 20 -40 20 -33 0 -40 3 -40 20
0 19 -7 20 -105 20 -98 0 -105 1 -105 20 0 18 -7 20 -60 20 -57 0 -60 1 -60
25 0 24 -2 25 -65 25 -58 0 -65 2 -65 20 0 18 -7 20 -80 20 -73 0 -80 2 -80
20 0 15 -7 20 -25 20 -18 0 -25 5 -25 20 0 13 -7 20 -20 20 -13 0 -20 -7 -20
-20 0 -13 -7 -20 -20 -20 -13 0 -20 7 -20 20 0 13 -7 20 -20 20 -13 0 -20 -7
-20 -20 0 -13 -7 -20 -20 -20 -13 0 -20 7 -20 20 0 18 -7 20 -65 20 -58 0 -65
-2 -65 -20 0 -13 -7 -20 -20 -20 -13 0 -20 7 -20 20 0 17 -7 20 -40 20 -33 0
-40 3 -40 20 0 13 -7 20 -20 20 -13 0 -20 -7 -20 -20 0 -13 -7 -20 -20 -20
-13 0 -20 7 -20 20 0 18 -7 20 -65 20 -58 0 -65 -2 -65 -20 0 -13 -7 -20 -20
-20 -13 0 -20 7 -20 20 0 13 -7 20 -20 20 -13 0 -20 -7 -20 -20z m298 -608
c11 -16 24 -22 53 -22 26 0 46 -7 59 -20 11 -11 27 -20 36 -20 9 0 18 -9 21
-20 3 -13 14 -20 28 -20 26 0 55 -24 55 -45 0 -8 10 -20 23 -26 24 -14 88 -13
97 0 24 38 140 34 177 -5 19 -20 28 -23 66 -18 38 6 47 3 73 -22 62 -59 108
-94 121 -94 7 0 18 -11 22 -24 5 -13 17 -26 25 -29 9 -4 16 -12 16 -19 0 -7 9
-19 20 -26 11 -7 20 -21 20 -32 0 -12 6 -23 14 -26 8 -3 18 -19 21 -36 4 -18
15 -32 27 -36 13 -3 19 -12 18 -31 -3 -43 -1 -49 21 -56 19 -6 21 -12 16 -57
-4 -28 -9 -53 -13 -57 -12 -12 -44 42 -44 75 0 22 -5 34 -14 34 -16 0 -26 21
-26 56 0 15 -6 24 -16 24 -8 0 -20 14 -25 30 -6 17 -15 30 -19 30 -5 0 -11 8
-14 18 -9 27 -67 86 -98 99 -16 7 -28 17 -28 23 0 5 -9 10 -19 10 -11 0 -23 9
-26 20 -4 14 -15 20 -36 20 -22 0 -32 7 -41 25 -6 14 -14 25 -17 26 -75 7 -98
12 -116 23 -11 7 -31 15 -45 18 -14 3 -33 9 -42 13 -14 5 -18 2 -18 -13 0 -24
-9 -31 -47 -38 -40 -7 -41 -13 -10 -36 15 -11 27 -29 27 -41 0 -12 9 -28 20
-35 12 -7 20 -23 20 -40 0 -15 9 -35 20 -45 13 -11 20 -29 20 -54 0 -21 9 -51
20 -68 13 -20 20 -47 20 -82 0 -30 5 -53 10 -53 16 0 31 -50 31 -105 0 -27 7
-68 16 -90 l16 -40 181 3 c100 2 190 7 201 12 33 14 109 20 350 26 278 7 281
6 252 -74 -13 -36 -18 -73 -16 -129 1 -43 -1 -199 -5 -346 -4 -147 -5 -279 -2
-293 6 -22 10 -24 39 -19 19 4 52 0 80 -10 28 -9 60 -13 80 -10 26 5 37 2 52
-15 21 -24 24 -91 15 -475 l-4 -150 -5 177 c-6 167 -7 178 -28 198 -13 11 -23
28 -23 36 0 54 -92 139 -170 159 -41 10 -52 -52 -40 -212 6 -71 11 -148 13
-173 l2 -44 20 42 c11 23 23 42 26 42 3 0 14 -9 24 -20 12 -14 16 -27 11 -47
-4 -15 -11 -48 -15 -73 -4 -25 -14 -58 -23 -75 -9 -18 -13 -46 -11 -70 4 -31
0 -45 -17 -63 -18 -19 -21 -32 -17 -64 5 -38 22 -62 38 -53 7 5 29 -63 29 -88
0 -21 -17 -30 -65 -37 l-40 -5 -3 -52 c-3 -59 10 -70 27 -22 8 23 15 30 27 25
9 -3 27 -9 40 -12 15 -4 24 -13 24 -25 0 -23 45 -27 57 -5 5 8 27 16 53 18 41
3 45 5 43 28 -14 134 10 439 27 355 4 -17 7 -104 8 -194 2 -183 -7 -223 -55
-242 -15 -6 -37 -15 -48 -20 -20 -9 -124 -27 -180 -32 l-30 -2 -3 -80 c-2 -80
9 -123 26 -97 13 19 70 32 140 32 44 0 68 5 79 15 13 14 47 13 63 -2 3 -3 6
-179 7 -391 1 -213 2 -454 3 -537 2 -209 -1 -249 -22 -253 -9 -2 -18 -12 -21
-23 -3 -12 -14 -19 -31 -19 -14 0 -33 -8 -43 -19 -10 -10 -35 -21 -55 -24 -20
-3 -50 -15 -66 -27 -27 -20 -40 -22 -192 -21 -144 0 -348 14 -390 26 -8 2
-157 9 -330 15 -173 6 -349 15 -391 20 -42 5 -236 14 -430 20 -195 6 -373 15
-396 20 -24 6 -176 15 -338 20 -163 6 -326 15 -363 20 -37 5 -118 10 -180 10
-109 0 -113 1 -124 24 -10 24 2 925 20 1476 4 118 9 551 10 962 1 411 5 755 8
763 5 11 22 15 63 15 31 0 74 5 96 11 58 14 83 16 304 24 136 5 201 11 202 19
1 6 0 97 -1 203 -2 184 -1 192 19 209 16 15 21 30 21 71 0 40 5 58 20 73 11
11 20 27 20 35 0 7 6 18 14 22 8 4 21 25 29 46 9 20 20 37 26 37 5 0 12 9 16
19 3 11 15 23 26 26 10 4 19 13 19 22 0 8 9 17 20 20 11 3 20 12 20 19 0 8 4
14 9 14 6 0 22 11 37 25 15 14 38 25 50 25 15 0 24 6 24 15 0 9 11 20 24 24
13 5 26 16 29 25 3 8 22 18 42 22 19 3 39 12 43 19 11 20 36 22 211 21 158 -1
164 -2 179 -24z"/>
<path d="M3165 6089 c-6 -18 -13 -20 -41 -16 -27 5 -37 2 -47 -14 -6 -10 -23
-19 -36 -19 -16 0 -38 -14 -62 -40 -35 -38 -69 -52 -69 -30 0 18 -18 10 -23
-10 -3 -12 -14 -20 -26 -20 -16 0 -21 -6 -21 -25 0 -13 -6 -29 -12 -35 -7 -6
-26 -21 -41 -35 -15 -14 -37 -25 -48 -25 -10 0 -19 -7 -19 -15 0 -9 -11 -20
-25 -25 -18 -7 -25 -17 -25 -37 0 -17 -8 -33 -19 -40 -12 -8 -20 -28 -24 -66
-3 -30 -12 -66 -20 -79 -16 -24 -22 -119 -19 -286 l2 -93 278 2 c152 1 287 3
298 6 13 3 25 16 30 35 11 37 28 38 32 1 4 -38 27 -54 59 -42 13 5 67 9 119 9
64 0 102 5 117 14 15 10 73 16 188 21 l166 7 -13 36 c-7 21 -13 61 -14 90 0
38 -6 61 -20 79 -14 18 -20 41 -20 77 0 39 -5 56 -20 69 -14 12 -20 29 -20 62
0 33 -5 47 -19 55 -11 5 -22 24 -26 41 -4 17 -16 40 -26 50 -10 10 -19 30 -19
44 0 14 -8 29 -19 35 -30 15 -38 12 -45 -15 -5 -20 -13 -25 -36 -25 -19 0 -33
-7 -40 -20 -6 -11 -17 -20 -25 -20 -7 0 -17 -9 -20 -20 -3 -11 -13 -20 -22
-20 -8 0 -17 -9 -20 -20 -3 -11 -12 -20 -20 -20 -8 0 -17 -9 -20 -20 -3 -10
-14 -22 -24 -25 -10 -4 -22 -17 -25 -31 -4 -15 -13 -24 -25 -24 -16 0 -19 -8
-19 -46 0 -37 -4 -47 -20 -51 -18 -5 -20 -14 -20 -79 0 -75 -10 -95 -35 -74
-10 8 -15 32 -15 71 0 47 4 63 20 76 12 11 20 30 20 50 0 22 6 36 20 43 13 7
20 21 20 41 0 22 5 32 20 36 11 3 20 14 20 23 0 10 9 21 19 25 11 3 23 15 26
26 4 10 12 19 20 19 8 0 17 9 20 20 3 11 13 20 20 20 8 0 19 9 25 20 6 11 16
20 23 20 7 0 18 9 24 19 7 11 25 21 40 23 20 2 29 9 31 26 2 14 -2 22 -11 22
-8 0 -21 7 -28 17 -8 9 -29 22 -46 30 -18 7 -33 20 -33 28 0 10 -10 15 -30 15
-19 0 -33 7 -40 20 -9 16 -21 20 -69 20 -50 0 -59 3 -64 20 -4 17 -14 20 -55
20 -43 0 -52 -3 -57 -21z"/>
<path d="M5110 3026 c0 -23 -19 -31 -90 -36 -49 -4 -65 -9 -65 -20 0 -10 14
-17 45 -20 58 -7 66 -13 74 -54 4 -18 15 -41 26 -51 29 -26 26 -73 -4 -86 -22
-10 -76 -99 -76 -125 0 -6 -9 -40 -20 -74 -26 -82 -25 -116 4 -159 23 -33 73
-195 83 -268 4 -22 -2 -41 -18 -65 -13 -18 -25 -35 -26 -36 -3 -7 -77 -21 -82
-16 -2 2 2 10 11 17 24 18 29 60 14 103 -7 22 -16 95 -20 163 -4 75 -12 135
-21 150 -7 15 -20 41 -29 59 -8 17 -19 32 -25 32 -5 0 -12 -33 -15 -72 -6 -73
-7 -97 -3 -463 l2 -200 30 0 c23 0 31 5 33 23 3 19 9 22 54 22 l50 0 -16 25
c-16 24 -15 25 3 25 11 0 30 -4 43 -9 60 -22 117 26 77 65 -18 19 -18 20 2 62
18 36 20 48 11 89 -6 27 -14 86 -17 133 -4 53 -12 91 -22 102 -12 14 -12 18
-1 25 30 18 48 58 48 108 0 28 -5 56 -12 63 -17 17 -45 15 -57 -5 -8 -14 -10
-10 -11 23 0 36 3 43 24 48 21 5 26 15 36 74 10 53 10 77 1 105 -9 25 -9 47
-2 74 5 21 11 70 13 108 3 70 3 70 -24 73 -20 2 -28 -1 -28 -12z"/>
<path d="M120 5605 c0 -24 -3 -25 -60 -25 l-60 0 0 -40 c0 -33 3 -40 20 -40
13 0 20 -7 20 -20 0 -13 -7 -20 -20 -20 -18 0 -20 -7 -20 -85 0 -78 2 -85 20
-85 13 0 20 7 20 20 0 13 7 20 20 20 13 0 20 -7 20 -20 0 -13 7 -20 20 -20 13
0 20 7 20 20 0 13 -7 20 -20 20 -18 0 -20 7 -20 85 l0 85 45 0 45 0 0 65 c0
63 -1 65 -25 65 -20 0 -25 -5 -25 -25z"/>
</g>
</svg>
