<svg width="37" height="37" viewBox="0 0 37 37" fill="none" xmlns="http://www.w3.org/2000/svg">
<path d="M20.0417 33.67C19.7322 33.668 19.426 33.6065 19.1398 33.4889C18.7175 33.3145 18.3574 33.0174 18.1059 32.636C17.8544 32.2547 17.7231 31.8066 17.7292 31.3498V28.9062C17.7292 28.7018 17.648 28.5057 17.5034 28.3612C17.3588 28.2166 17.1628 28.1354 16.9583 28.1354H4.625C4.01169 28.1354 3.42349 27.8918 2.98982 27.4581C2.55614 27.0244 2.3125 26.4362 2.3125 25.8229V5.78125C2.3125 5.16794 2.55614 4.57974 2.98982 4.14607C3.42349 3.71239 4.01169 3.46875 4.625 3.46875H32.375C32.9883 3.46875 33.5765 3.71239 34.0102 4.14607C34.4439 4.57974 34.6875 5.16794 34.6875 5.78125V25.8229C34.6875 26.4362 34.4439 27.0244 34.0102 27.4581C33.5765 27.8918 32.9883 28.1354 32.375 28.1354H26.8481C26.7464 28.1353 26.6457 28.1554 26.5518 28.1944C26.4578 28.2334 26.3725 28.2907 26.3008 28.3628L21.6758 32.9878C21.4627 33.2047 21.2083 33.3768 20.9276 33.4939C20.647 33.6111 20.3458 33.6709 20.0417 33.67ZM4.625 5.01042C4.42056 5.01042 4.2245 5.09163 4.07994 5.23619C3.93538 5.38075 3.85417 5.57681 3.85417 5.78125V25.8229C3.85417 26.0274 3.93538 26.2234 4.07994 26.368C4.2245 26.5125 4.42056 26.5938 4.625 26.5938H16.9583C17.5716 26.5938 18.1598 26.8374 18.5935 27.2711C19.0272 27.7047 19.2708 28.2929 19.2708 28.9062V31.3498C19.2705 31.5022 19.3154 31.6513 19.3998 31.7782C19.4841 31.9051 19.6042 32.0041 19.7449 32.0628C19.8856 32.1214 20.0406 32.1369 20.1901 32.1074C20.3397 32.0779 20.4771 32.0047 20.5851 31.8971L25.2101 27.2721C25.4251 27.0568 25.6804 26.8861 25.9615 26.7697C26.2426 26.6533 26.5439 26.5935 26.8481 26.5938H32.375C32.5794 26.5938 32.7755 26.5125 32.9201 26.368C33.0646 26.2234 33.1458 26.0274 33.1458 25.8229V5.78125C33.1458 5.57681 33.0646 5.38075 32.9201 5.23619C32.7755 5.09163 32.5794 5.01042 32.375 5.01042H4.625Z" fill="black"/>
<path d="M29.2917 10.4063H7.70833C7.5039 10.4063 7.30783 10.3251 7.16327 10.1805C7.01871 10.036 6.9375 9.8399 6.9375 9.63546C6.9375 9.43102 7.01871 9.23496 7.16327 9.0904C7.30783 8.94584 7.5039 8.86462 7.70833 8.86462H29.2917C29.4961 8.86462 29.6922 8.94584 29.8367 9.0904C29.9813 9.23496 30.0625 9.43102 30.0625 9.63546C30.0625 9.8399 29.9813 10.036 29.8367 10.1805C29.6922 10.3251 29.4961 10.4063 29.2917 10.4063Z" fill="black"/>
<path d="M29.2917 16.5729H7.70833C7.5039 16.5729 7.30783 16.4917 7.16327 16.3471C7.01871 16.2026 6.9375 16.0065 6.9375 15.8021C6.9375 15.5976 7.01871 15.4016 7.16327 15.257C7.30783 15.1125 7.5039 15.0312 7.70833 15.0312H29.2917C29.4961 15.0312 29.6922 15.1125 29.8367 15.257C29.9813 15.4016 30.0625 15.5976 30.0625 15.8021C30.0625 16.0065 29.9813 16.2026 29.8367 16.3471C29.6922 16.4917 29.4961 16.5729 29.2917 16.5729Z" fill="black"/>
<path d="M29.2917 22.7395H7.70833C7.5039 22.7395 7.30783 22.6583 7.16327 22.5138C7.01871 22.3692 6.9375 22.1731 6.9375 21.9687C6.9375 21.7643 7.01871 21.5682 7.16327 21.4236C7.30783 21.2791 7.5039 21.1979 7.70833 21.1979H29.2917C29.4961 21.1979 29.6922 21.2791 29.8367 21.4236C29.9813 21.5682 30.0625 21.7643 30.0625 21.9687C30.0625 22.1731 29.9813 22.3692 29.8367 22.5138C29.6922 22.6583 29.4961 22.7395 29.2917 22.7395Z" fill="black"/>
</svg>
