<svg width="55" height="34" viewBox="0 0 55 34" fill="none" xmlns="http://www.w3.org/2000/svg">
<path d="M53.0117 9.07527H49.6367V5.67204C49.6367 5.37118 49.5182 5.08264 49.3072 4.86989C49.0962 4.65715 48.8101 4.53763 48.5117 4.53763H45.1367V1.13441C45.1367 0.833545 45.0182 0.545003 44.8072 0.332261C44.5962 0.119518 44.3101 0 44.0117 0H1.26172C0.96335 0 0.677202 0.119518 0.466224 0.332261C0.255245 0.545003 0.136719 0.833545 0.136719 1.13441V23.6184C0.136719 23.9192 0.255245 24.2078 0.466224 24.4205C0.677202 24.6333 0.96335 24.7528 1.26172 24.7528H4.63672V28.156C4.63672 28.4569 4.75525 28.7454 4.96622 28.9582C5.1772 29.1709 5.46335 29.2904 5.76172 29.2904H9.13672V32.6936C9.13672 32.9945 9.25525 33.2831 9.46622 33.4958C9.6772 33.7085 9.96335 33.8281 10.2617 33.8281H53.0117C53.3101 33.8281 53.5962 33.7085 53.8072 33.4958C54.0182 33.2831 54.1367 32.9945 54.1367 32.6936V10.2097C54.1367 9.90881 54.0182 9.62027 53.8072 9.40753C53.5962 9.19479 53.3101 9.07527 53.0117 9.07527ZM35.6867 22.484H9.58672C9.3381 20.6468 8.49954 18.9423 7.19929 17.6312C5.89904 16.32 4.20867 15.4745 2.38672 15.2238V9.52903C4.20867 9.27833 5.89904 8.43276 7.19929 7.12163C8.49954 5.81051 9.3381 4.10601 9.58672 2.26882H35.6867C35.9353 4.10601 36.7739 5.81051 38.0742 7.12163C39.3744 8.43276 41.0648 9.27833 42.8867 9.52903V15.2238C41.0648 15.4745 39.3744 16.32 38.0742 17.6312C36.7739 18.9423 35.9353 20.6468 35.6867 22.484ZM42.8867 17.4926V22.484H37.9142C38.1474 21.2435 38.747 20.103 39.6344 19.2123C40.5218 18.3215 41.6555 17.7221 42.8867 17.4926ZM42.8867 2.26882V7.2829C41.6524 7.0519 40.5165 6.44909 39.6288 5.55397C38.7411 4.65885 38.1433 3.51345 37.9142 2.26882H42.8867ZM2.38672 2.26882H7.35922C7.13013 3.51345 6.53232 4.65885 5.64463 5.55397C4.75693 6.44909 3.62103 7.0519 2.38672 7.2829V2.26882ZM2.38672 17.4926C3.61796 17.7221 4.75165 18.3215 5.63903 19.2123C6.52641 20.103 7.12603 21.2435 7.35922 22.484H2.38672V17.4926ZM6.88672 24.7755H44.0117C44.3101 24.7755 44.5962 24.656 44.8072 24.4432C45.0182 24.2305 45.1367 23.9419 45.1367 23.6411V6.80645H47.3867V27.0216H6.88672V24.7755ZM51.8867 31.5819H11.3867V29.3131H48.5117C48.8101 29.3131 49.0962 29.1936 49.3072 28.9809C49.5182 28.7681 49.6367 28.4796 49.6367 28.1787V11.3441H51.8867V31.5819Z" fill="#FF0009"/>
<path d="M22.6367 4.67376C21.1281 4.67376 19.6534 5.12485 18.3991 5.96998C17.1448 6.81511 16.1671 8.01632 15.5898 9.42172C15.0125 10.8271 14.8615 12.3736 15.1558 13.8655C15.4501 15.3575 16.1765 16.728 17.2433 17.8036C18.31 18.8793 19.6691 19.6118 21.1487 19.9086C22.6283 20.2053 24.1619 20.053 25.5556 19.4709C26.9494 18.8887 28.1406 17.9029 28.9788 16.6381C29.8169 15.3733 30.2642 13.8862 30.2642 12.3651C30.2583 10.327 29.4528 8.3742 28.0236 6.9331C26.5945 5.492 24.6578 4.67975 22.6367 4.67376ZM22.6367 17.7875C21.5732 17.7875 20.5335 17.4695 19.6491 16.8737C18.7648 16.2778 18.0756 15.431 17.6686 14.4401C17.2615 13.4493 17.1551 12.359 17.3625 11.3072C17.57 10.2553 18.0822 9.28913 18.8343 8.53078C19.5863 7.77244 20.5445 7.256 21.5876 7.04677C22.6308 6.83754 23.712 6.94493 24.6946 7.35534C25.6772 7.76575 26.5171 8.46077 27.1079 9.35249C27.6988 10.2442 28.0142 11.2926 28.0142 12.3651C28.0172 13.079 27.8803 13.7866 27.6114 14.4471C27.3424 15.1076 26.9468 15.7081 26.4472 16.214C25.9475 16.7199 25.3537 17.1214 24.6998 17.3953C24.0459 17.6692 23.3448 17.8102 22.6367 17.8102V17.7875Z" fill="#FF0009"/>
</svg>
