<svg width="47" height="43" viewBox="0 0 47 43" fill="none" xmlns="http://www.w3.org/2000/svg">
<path d="M20.8479 19.8903C20.8479 21.875 22.4583 23.4845 24.4421 23.4845C25.8359 23.4845 27.0303 22.6833 27.6266 21.5242L27.6366 21.5333L34.1978 9.69587L22.6794 16.7592L22.6903 16.7701C21.5964 17.3872 20.8479 18.5454 20.8479 19.8903Z" fill="#FF0009"/>
<path d="M38.9221 2.76397C35.2391 -0.455033 30.4804 -2.51041 25.0429 -2.81763V2.64434C29.5742 2.93253 32.244 4.37165 34.9247 6.61734L38.9221 2.76397Z" fill="#FF0009"/>
<path d="M41.4877 18.1874H46.9434C46.5772 12.7499 44.4503 8.28212 41.1479 4.62087L37.2882 8.45703C39.6136 11.1214 41.1434 14.5624 41.4877 18.1874Z" fill="#FF0009"/>
<path d="M40.5131 20.9063C39.9358 29.9688 32.4275 37.1562 23.2563 37.1562C13.7089 37.1562 5.65601 29.4132 5.65601 19.8668C5.65601 10.7789 13.1679 3.34313 21.3242 2.64532V-2.81665C9.54291 -2.11068 0.218506 7.80188 0.218506 19.8904C0.218506 32.4356 10.5679 42.5937 23.1131 42.5937C35.2859 42.5937 45.3978 32.6875 45.9787 20.9063H40.5131Z" fill="#FF0009"/>
</svg>
