<svg width="37" height="37" viewBox="0 0 37 37" fill="none" xmlns="http://www.w3.org/2000/svg">
<path d="M26.6357 1.69604H10.3643C5.56821 1.69604 1.68018 5.58408 1.68018 10.3802V26.6515C1.68018 31.4477 5.56821 35.3357 10.3643 35.3357H26.6357C31.4318 35.3357 35.3198 31.4477 35.3198 26.6515V10.3802C35.3198 5.58408 31.4318 1.69604 26.6357 1.69604Z" fill="url(#paint0_linear_95_34)"/>
<path d="M18.5 6.29651C16.399 6.29686 14.3351 6.85055 12.516 7.90186C10.697 8.95317 9.18685 10.465 8.13764 12.2853C7.08842 14.1056 6.53711 16.1701 6.53918 18.2711C6.54125 20.3722 7.09662 22.4356 8.14941 24.2538L6.52344 30.478L12.8503 28.8022C14.4534 29.6608 16.2311 30.1426 18.0484 30.2109C19.8656 30.2792 21.6745 29.9323 23.3376 29.1964C25.0006 28.4606 26.4739 27.3553 27.6456 25.9645C28.8173 24.5737 29.6564 22.9341 30.0992 21.1703C30.5419 19.4065 30.5767 17.5649 30.2009 15.7857C29.825 14.0064 29.0484 12.3363 27.9301 10.9022C26.8118 9.46819 25.3812 8.30802 23.7471 7.50994C22.1131 6.71185 20.3186 6.29686 18.5 6.29651ZM25.5344 25.293C23.9283 26.8982 21.8216 27.9061 19.5639 28.1494C17.3063 28.3927 15.0332 27.8568 13.122 26.6306L9.44658 27.6055L10.386 24.0153C9.28854 22.4687 8.65598 20.6406 8.56286 18.7464C8.46975 16.8522 8.91997 14.9709 9.86048 13.324C10.801 11.6772 12.1926 10.3335 13.8714 9.45124C15.5501 8.56898 17.4461 8.18492 19.3358 8.34431C21.2256 8.5037 23.0304 9.19989 24.5377 10.3509C26.0449 11.5019 27.1918 13.0597 27.8432 14.8408C28.4946 16.6218 28.6234 18.552 28.2143 20.4038C27.8052 22.2557 26.8754 23.952 25.5344 25.293Z" fill="white"/>
<path d="M24.4937 21.3906C24.4943 21.5873 24.4776 21.7836 24.4438 21.9774C24.4121 22.1738 24.3637 22.3672 24.2993 22.5555C24.1512 22.9739 23.3418 23.4863 23.3418 23.4863C22.7666 23.8692 22.0793 24.0473 21.3906 23.9922C21.2291 23.9757 21.0687 23.9501 20.91 23.9156C20.6412 23.8556 20.5104 23.8173 20.5104 23.8173C20.3803 23.779 20.0429 23.6728 20.0429 23.6728C19.7054 23.5672 19.6295 23.547 19.6295 23.547C19.1169 23.3929 18.6201 23.1904 18.1459 22.9422C17.0525 22.3481 15.8616 21.2837 15.8616 21.2837C15.1564 20.6568 14.519 19.9578 13.9595 19.1981C13.662 18.7533 13.4056 18.2824 13.1935 17.7911C13.1646 17.7188 13.0222 17.3943 13.0222 17.3943C12.8777 17.0706 12.8271 16.9455 12.8271 16.9455C12.7751 16.8198 12.6826 16.5597 12.6826 16.5597C12.6298 16.4061 12.5866 16.2495 12.5532 16.0906C12.5267 15.9473 12.5088 15.8025 12.4998 15.6571C12.4579 14.8968 12.8358 14.0968 12.8358 14.0968C13.2513 13.2369 13.6546 13.0403 13.6546 13.0403C13.8349 12.9589 14.0209 12.8906 14.211 12.8358C14.3992 12.7774 14.593 12.7387 14.7891 12.7202C14.8479 12.7144 14.9072 12.7196 14.964 12.7354C15.1158 12.7765 15.4374 13.3388 15.4374 13.3388C15.5371 13.4905 15.7098 13.7724 15.7098 13.7724C15.8832 14.0528 16.0285 14.2782 16.0285 14.2782C16.173 14.5059 16.3089 14.7053 16.3089 14.7053C16.3356 14.7371 16.465 14.904 16.465 14.904C16.536 14.9939 16.6008 15.0885 16.6587 15.1873C16.6984 15.2589 16.723 15.3378 16.7309 15.4193C16.7396 15.5848 16.5185 15.8457 16.5185 15.8457C16.3682 16.0184 16.2054 16.1797 16.0314 16.3284C15.8596 16.4741 15.6967 16.63 15.5436 16.7952C15.321 17.0395 15.3268 17.1884 15.3268 17.1884C15.3355 17.2516 15.3528 17.3133 15.3781 17.3719C15.4258 17.481 15.4583 17.5374 15.4583 17.5374C15.4901 17.593 15.5848 17.7289 15.5848 17.7289C15.6795 17.8648 15.6881 17.8807 15.6881 17.8807C16.1244 18.5625 16.6436 19.1876 17.2339 19.7415C18.0888 20.5061 19.2573 21.0705 19.2573 21.0705C19.2747 21.0777 19.4199 21.1565 19.4199 21.1565C19.5645 21.236 19.6244 21.2613 19.6244 21.2613C19.6837 21.2873 19.7979 21.322 19.7979 21.322C19.8584 21.3426 19.9219 21.3531 19.9858 21.353C20.1346 21.3451 20.3529 21.0965 20.3529 21.0965C20.4996 20.9257 20.6362 20.7464 20.7619 20.5596C20.8905 20.3705 21.0328 20.191 21.1875 20.0226C21.4224 19.7733 21.5879 19.7639 21.5879 19.7639C21.6695 19.7632 21.7505 19.7784 21.8264 19.8087C21.9304 19.8564 22.0315 19.9102 22.1292 19.9699C22.3098 20.0797 22.346 20.1028 22.346 20.1028C22.5628 20.2156 22.8027 20.3341 22.8027 20.3341C23.0455 20.4533 23.3432 20.5942 23.3432 20.5942C23.641 20.7352 23.8028 20.8168 23.8028 20.8168C24.3976 21.0741 24.4532 21.2201 24.4532 21.2201C24.475 21.2746 24.4886 21.3321 24.4937 21.3906Z" fill="white"/>
<defs>
<linearGradient id="paint0_linear_95_34" x1="18.5" y1="35.3357" x2="18.5" y2="1.69604" gradientUnits="userSpaceOnUse">
<stop stop-color="#00D02D"/>
<stop offset="0.25" stop-color="#10D93A"/>
<stop offset="0.75" stop-color="#3AF15D"/>
<stop offset="1" stop-color="#51FE71"/>
</linearGradient>
</defs>
</svg>
